<?xml version="1.0" encoding="UTF-8"?>
<!DOCTYPE svg PUBLIC "-//W3C//DTD SVG 1.1//EN" "http://www.w3.org/Graphics/SVG/1.1/DTD/svg11.dtd">
<svg version="1.1" xmlns="http://www.w3.org/2000/svg" xmlns:xlink="http://www.w3.org/1999/xlink" x="0" y="0" width="350.192" height="300.769" viewBox="0, 0, 350.192, 300.769">
  <g id="Layer_1">
    <path d="M22.53,238.134 C14.199,238.134 8.427,247.717 11.311,256.736 C19.505,282.366 40.917,300.769 65.883,300.769 L279.163,300.769 C304.129,300.769 325.541,282.366 333.735,256.736 C336.619,247.717 330.847,238.134 322.516,238.134 z" fill="#F4A335" id="path28754"/>
    <path d="M24.992,281.233 C35.514,293.287 49.974,300.769 65.884,300.769 L279.164,300.769 C295.073,300.769 309.533,293.287 320.055,281.233 z" fill="#ED9136" id="path28756"/>
    <path d="M324.958,238.133 L22.311,238.133 C18.631,238.133 15.621,235.124 15.621,231.443 L15.621,228.271 C15.621,224.591 18.631,221.581 22.311,221.581 L324.958,221.581 C328.637,221.581 331.648,224.591 331.648,228.271 L331.648,231.443 C331.648,235.124 328.637,238.133 324.958,238.133" fill="#F06453" id="path28758"/>
    <path d="M338.406,181.587 C338.406,181.587 359.074,205.836 345.671,218.792 C332.268,231.749 305.876,221.852 301.752,225.151 C297.629,228.45 286.892,266.763 265.457,250.493 C244.021,234.223 239.734,220.203 226.208,225.151 C212.682,230.099 211.945,259.713 194.994,252.741 C178.043,245.769 184.641,236.697 171.857,230.924 C159.074,225.151 154.056,256.388 143.37,256.851 C132.683,257.315 124.095,238.347 113.131,237.522 C102.168,236.697 81.772,277.934 69.29,260.614 C56.808,243.295 64.23,230.409 51.859,226.543 C39.488,222.677 27.117,244.12 12.272,235.872 C-2.573,227.625 -1.748,208.128 4.85,203.444 C11.447,198.76 20.733,178.296 20.733,178.296 z" fill="#94C34A" id="path28760"/>
    <path d="M338.406,181.587 C338.406,202.316 304.453,219.12 262.57,219.12 C220.686,219.12 186.733,202.316 186.733,181.587 C186.733,160.858 220.686,144.054 262.57,144.054 C304.453,144.054 338.406,160.858 338.406,181.587" fill="#F06453" id="path28762"/>
    <path d="M319.351,181.587 C319.351,195.158 293.929,206.16 262.57,206.16 C231.211,206.16 205.79,195.158 205.79,181.587 C205.79,168.016 231.211,157.014 262.57,157.014 C293.929,157.014 319.351,168.016 319.351,181.587" fill="#F06453" id="path28764"/>
    <path d="M288.955,203.345 L271.638,186.027 C271.881,185.529 272.091,185.013 272.251,184.474 L318.948,184.474 C316.725,192.686 305.155,199.658 288.955,203.345 M262.549,206.16 L262.592,206.16 C262.584,206.16 262.578,206.16 262.57,206.16 C262.562,206.16 262.556,206.16 262.549,206.16 M206.192,184.474 L252.889,184.474 C253.088,185.145 253.351,185.789 253.679,186.394 L236.63,203.444 C220.2,199.784 208.435,192.761 206.192,184.474 M236.185,159.829 L253.502,177.147 C253.259,177.644 253.049,178.161 252.889,178.7 L206.192,178.7 C208.415,170.488 219.987,163.516 236.185,159.829 M286.431,159.289 C303.942,162.805 316.612,170.067 318.948,178.7 L272.251,178.7 C272.052,178.029 271.787,177.385 271.461,176.78 L287.691,160.549 z M267.01,190.654 L281.161,204.806 C276.2,205.549 270.935,206.01 265.457,206.129 L265.457,191.268 C265.997,191.108 266.513,190.898 267.01,190.654 M265.457,157.046 C271.109,157.168 276.537,157.652 281.635,158.438 L267.377,172.697 C266.773,172.369 266.129,172.106 265.457,171.906 z M258.131,172.52 L243.98,158.369 C248.94,157.625 254.205,157.164 259.682,157.046 L259.682,171.906 C259.144,172.066 258.627,172.276 258.131,172.52 M259.682,206.129 C254.031,206.006 248.601,205.522 243.504,204.736 L257.763,190.477 C258.368,190.805 259.011,191.068 259.682,191.268 z M262.57,149.897 C224.419,149.897 193.493,164.085 193.493,181.587 C193.493,199.089 224.419,213.277 262.57,213.277 C300.721,213.277 331.648,199.089 331.648,181.587 C331.648,164.085 300.721,149.897 262.57,149.897" fill="#F6A39A" id="path28766"/>
    <path d="M231.423,188.132 C231.53,188.423 230.301,189.14 228.678,189.733 C227.056,190.326 225.654,190.571 225.548,190.28 C225.441,189.988 226.67,189.272 228.293,188.679 C229.915,188.085 231.317,187.841 231.423,188.132" fill="#FEFEFE" id="path28768"/>
    <path d="M237.302,189.095 C237.408,189.386 236.18,190.103 234.557,190.696 C232.935,191.289 231.533,191.534 231.427,191.243 C231.32,190.951 232.549,190.235 234.172,189.641 C235.794,189.048 237.195,188.804 237.302,189.095" fill="#FEFEFE" id="path28770"/>
    <path d="M235.972,192.681 C236.078,192.972 234.849,193.689 233.227,194.282 C231.605,194.875 230.203,195.12 230.097,194.829 C229.99,194.537 231.219,193.821 232.842,193.228 C234.464,192.634 235.866,192.39 235.972,192.681" fill="#FEFEFE" id="path28772"/>
    <path d="M292.056,188.132 C291.949,188.423 293.178,189.14 294.801,189.733 C296.423,190.326 297.825,190.571 297.931,190.28 C298.039,189.988 296.81,189.272 295.186,188.679 C293.564,188.085 292.162,187.841 292.056,188.132" fill="#FEFEFE" id="path28774"/>
    <path d="M286.178,189.095 C286.072,189.386 287.3,190.103 288.923,190.696 C290.545,191.289 291.947,191.534 292.053,191.243 C292.16,190.951 290.931,190.235 289.308,189.641 C287.686,189.048 286.285,188.804 286.178,189.095" fill="#FEFEFE" id="path28776"/>
    <path d="M287.507,192.681 C287.4,192.972 288.629,193.689 290.252,194.282 C291.874,194.875 293.276,195.12 293.382,194.829 C293.489,194.537 292.26,193.821 290.637,193.228 C289.015,192.634 287.613,192.39 287.507,192.681" fill="#FEFEFE" id="path28778"/>
    <path d="M253.871,197.323 C254.167,197.414 253.996,198.826 253.489,200.478 C252.982,202.129 252.33,203.394 252.034,203.302 C251.737,203.211 251.908,201.799 252.416,200.148 C252.923,198.497 253.575,197.232 253.871,197.323" fill="#FEFEFE" id="path28780"/>
    <path d="M257.432,197.645 C257.728,197.736 257.557,199.149 257.05,200.8 C256.543,202.451 255.891,203.716 255.595,203.624 C255.298,203.533 255.469,202.121 255.977,200.47 C256.484,198.819 257.136,197.554 257.432,197.645" fill="#FEFEFE" id="path28782"/>
    <path d="M270.992,197.323 C270.696,197.414 270.867,198.826 271.374,200.478 C271.882,202.129 272.533,203.394 272.83,203.302 C273.126,203.211 272.955,201.799 272.447,200.148 C271.94,198.497 271.288,197.232 270.992,197.323" fill="#FEFEFE" id="path28784"/>
    <path d="M267.432,197.645 C267.136,197.736 267.307,199.149 267.814,200.8 C268.322,202.451 268.973,203.716 269.269,203.624 C269.566,203.533 269.395,202.121 268.887,200.47 C268.38,198.819 267.728,197.554 267.432,197.645" fill="#FEFEFE" id="path28786"/>
    <path d="M210.588,178.296 C210.588,204.942 166.943,226.543 113.104,226.543 C59.266,226.543 15.621,204.942 15.621,178.296 C15.621,151.65 59.266,130.049 113.104,130.049 C166.943,130.049 210.588,151.65 210.588,178.296" fill="#F06453" id="path28788"/>
    <path d="M186.093,178.296 C186.093,195.741 153.415,209.883 113.104,209.883 C72.794,209.883 40.116,195.741 40.116,178.296 C40.116,160.851 72.794,146.709 113.104,146.709 C153.415,146.709 186.093,160.851 186.093,178.296" fill="#F06453" id="path28790"/>
    <path d="M147.021,206.265 L124.759,184.003 C125.073,183.364 125.342,182.7 125.548,182.008 L185.574,182.008 C182.717,192.564 167.843,201.526 147.021,206.265 M113.076,209.883 L113.131,209.883 C113.122,209.883 113.113,209.884 113.104,209.884 C113.094,209.884 113.085,209.883 113.076,209.883 M40.633,182.008 L100.659,182.008 C100.916,182.87 101.254,183.698 101.676,184.476 L79.759,206.392 C58.639,201.688 43.516,192.66 40.633,182.008 M79.187,150.328 L101.448,172.589 C101.134,173.228 100.865,173.892 100.659,174.585 L40.633,174.585 C43.49,164.029 58.365,155.067 79.187,150.328 M143.775,149.634 C166.286,154.153 182.571,163.488 185.574,174.585 L125.548,174.585 C125.292,173.722 124.953,172.894 124.532,172.117 L145.395,151.253 z M118.811,189.952 L137.001,208.143 C130.625,209.099 123.856,209.691 116.815,209.843 L116.815,190.741 C117.508,190.535 118.172,190.265 118.811,189.952 M116.815,146.75 C124.079,146.907 131.059,147.529 137.611,148.54 L119.283,166.868 C118.505,166.447 117.678,166.108 116.815,165.851 z M107.397,166.641 L89.206,148.45 C95.582,147.494 102.352,146.902 109.392,146.75 L109.392,165.851 C108.699,166.058 108.036,166.327 107.397,166.641 M109.392,209.843 C102.128,209.686 95.148,209.064 88.595,208.053 L106.924,189.724 C107.702,190.145 108.529,190.484 109.392,190.741 z M113.104,137.56 C64.063,137.56 24.308,155.799 24.308,178.296 C24.308,200.794 64.063,219.033 113.104,219.033 C162.144,219.033 201.899,200.794 201.899,178.296 C201.899,155.799 162.144,137.56 113.104,137.56" fill="#F6A39A" id="path28792"/>
    <path d="M73.066,186.709 C73.203,187.083 71.623,188.005 69.538,188.767 C67.452,189.529 65.651,189.844 65.514,189.47 C65.377,189.095 66.957,188.174 69.042,187.412 C71.128,186.649 72.929,186.335 73.066,186.709" fill="#FEFEFE" id="path28794"/>
    <path d="M80.623,187.946 C80.76,188.32 79.18,189.242 77.094,190.004 C75.009,190.767 73.207,191.081 73.071,190.707 C72.934,190.332 74.514,189.411 76.599,188.649 C78.684,187.886 80.486,187.572 80.623,187.946" fill="#FEFEFE" id="path28796"/>
    <path d="M78.914,192.557 C79.051,192.931 77.471,193.853 75.386,194.615 C73.3,195.377 71.498,195.692 71.362,195.318 C71.225,194.943 72.805,194.022 74.89,193.26 C76.976,192.497 78.777,192.183 78.914,192.557" fill="#FEFEFE" id="path28798"/>
    <path d="M151.007,186.709 C150.871,187.083 152.45,188.005 154.536,188.767 C156.622,189.529 158.423,189.844 158.56,189.47 C158.696,189.095 157.117,188.174 155.031,187.412 C152.945,186.649 151.144,186.335 151.007,186.709" fill="#FEFEFE" id="path28800"/>
    <path d="M143.451,187.946 C143.314,188.32 144.894,189.242 146.979,190.004 C149.065,190.767 150.866,191.081 151.003,190.707 C151.14,190.332 149.56,189.411 147.475,188.649 C145.389,187.886 143.588,187.572 143.451,187.946" fill="#FEFEFE" id="path28802"/>
    <path d="M145.16,192.557 C145.023,192.931 146.603,193.853 148.688,194.615 C150.774,195.377 152.575,195.692 152.712,195.318 C152.849,194.943 151.269,194.022 149.184,193.26 C147.098,192.497 145.297,192.183 145.16,192.557" fill="#FEFEFE" id="path28804"/>
    <path d="M101.922,198.523 C102.303,198.64 102.083,200.456 101.431,202.578 C100.78,204.701 99.941,206.326 99.56,206.209 C99.179,206.092 99.399,204.277 100.052,202.154 C100.703,200.032 101.541,198.406 101.922,198.523" fill="#FEFEFE" id="path28806"/>
    <path d="M106.499,198.937 C106.88,199.054 106.66,200.87 106.008,202.992 C105.356,205.115 104.518,206.74 104.137,206.623 C103.756,206.506 103.976,204.691 104.628,202.568 C105.281,200.446 106.118,198.82 106.499,198.937" fill="#FEFEFE" id="path28808"/>
    <path d="M123.931,198.523 C123.55,198.64 123.77,200.456 124.422,202.578 C125.074,204.701 125.912,206.326 126.293,206.209 C126.674,206.092 126.454,204.277 125.802,202.154 C125.15,200.032 124.312,198.406 123.931,198.523" fill="#FEFEFE" id="path28810"/>
    <path d="M119.354,198.937 C118.973,199.054 119.193,200.87 119.845,202.992 C120.497,205.115 121.335,206.74 121.716,206.623 C122.097,206.506 121.877,204.691 121.225,202.568 C120.573,200.446 119.735,198.82 119.354,198.937" fill="#FEFEFE" id="path28812"/>
    <path d="M319.916,179.529 L23.799,179.529 C15.645,179.529 8.973,172.857 8.973,164.703 L8.973,148.156 C8.973,140.002 15.645,133.33 23.799,133.33 L319.916,133.33 C328.07,133.33 334.742,140.002 334.742,148.156 L334.742,164.703 C334.742,172.857 328.07,179.529 319.916,179.529" fill="#6E4337" id="path28814"/>
    <path d="M8.973,125.359 L0,143.297 L125.26,164.946 L340.099,144.848 L318.567,111.269 L15.777,117.332 z" fill="#FCF28C" id="path28816"/>
    <path d="M110.63,122.77 L259.683,168.995 L330.653,124.289 L308.954,111.524 z" fill="#E4DE9B" id="path28818"/>
    <path d="M116.815,122.243 L259.682,168.995 L326.532,123.691 L305.85,111.524 z" fill="#FCF28C" id="path28820"/>
    <path d="M12.066,107.421 C12.066,107.421 -6.491,120.514 5.88,130.049 C18.251,139.585 7.118,154.431 23.818,151.956 C40.519,149.482 42.375,132.163 52.89,134.637 C63.405,137.111 62.787,148.583 71.446,149.033 C80.106,149.482 85.673,132.163 93.096,132.781 C100.518,133.4 103.422,147.008 113.104,147.008 C122.786,147.008 125.26,131.029 136.394,130.049 C147.528,129.07 151.239,143.915 162.992,142.678 C174.744,141.441 176.381,127.488 186.387,129.826 C196.393,132.163 202.579,141.441 210.001,140.823 C217.424,140.204 225.465,129.792 235.362,130.049 C245.258,130.307 250.825,143.915 258.866,143.915 C266.908,143.915 270.619,130.41 281.134,130.049 C291.649,129.689 298.401,141.441 305.85,142.06 C313.299,142.678 321.34,129.792 326.288,130.049 C331.237,130.307 348.556,141.096 348.556,129.826 C348.556,118.555 326.907,103.091 326.907,103.091 z" fill="#94C34A" id="path28822"/>
    <path d="M334.742,105.257 L334.742,105.257 C334.742,47.366 287.377,-0 229.485,-0 L114.23,-0 C56.339,-0 8.974,47.366 8.974,105.257 L8.974,105.257 C8.974,114.196 16.22,121.443 25.16,121.443 L318.556,121.443 C327.495,121.443 334.742,114.196 334.742,105.257" fill="#F4A335" id="path28824"/>
    <path d="M131.671,30.737 C131.671,34.089 130.077,34.651 128.11,34.651 C126.143,34.651 124.549,34.089 124.549,30.737 C124.549,27.385 128.11,21.793 128.11,21.793 C128.11,21.793 131.671,27.385 131.671,30.737" fill="#F8C992" id="path28826"/>
    <path d="M185.603,61.755 C185.603,65.107 184.009,65.669 182.042,65.669 C180.075,65.669 178.481,65.107 178.481,61.755 C178.481,58.404 182.042,52.811 182.042,52.811 C182.042,52.811 185.603,58.404 185.603,61.755" fill="#F8C992" id="path28828"/>
    <path d="M67.597,57.245 C67.597,60.597 66.003,61.159 64.036,61.159 C62.069,61.159 60.475,60.597 60.475,57.245 C60.475,53.893 64.036,48.301 64.036,48.301 C64.036,48.301 67.597,53.893 67.597,57.245" fill="#F8C992" id="path28830"/>
    <path d="M173.886,30.737 C173.886,34.089 172.292,34.651 170.325,34.651 C168.358,34.651 166.764,34.089 166.764,30.737 C166.764,27.385 170.325,21.793 170.325,21.793 C170.325,21.793 173.886,27.385 173.886,30.737" fill="#F8C992" id="path28832"/>
    <path d="M151.779,11.007 C151.779,14.359 150.185,14.921 148.218,14.921 C146.251,14.921 144.657,14.359 144.657,11.007 C144.657,7.655 148.218,2.063 148.218,2.063 C148.218,2.063 151.779,7.655 151.779,11.007" fill="#F8C992" id="path28834"/>
    <path d="M128.695,61.755 C128.695,65.107 127.101,65.669 125.134,65.669 C123.167,65.669 121.573,65.107 121.573,61.755 C121.573,58.404 125.134,52.811 125.134,52.811 C125.134,52.811 128.695,58.404 128.695,61.755" fill="#F8C992" id="path28836"/>
    <path d="M247.495,18.865 C247.495,22.217 245.901,22.779 243.934,22.779 C241.967,22.779 240.373,22.217 240.373,18.865 C240.373,15.513 243.934,9.921 243.934,9.921 C243.934,9.921 247.495,15.513 247.495,18.865" fill="#F8C992" id="path28838"/>
    <path d="M286.916,58.287 C286.916,61.639 285.322,62.201 283.355,62.201 C281.388,62.201 279.794,61.639 279.794,58.287 C279.794,54.935 283.355,49.343 283.355,49.343 C283.355,49.343 286.916,54.935 286.916,58.287" fill="#F8C992" id="path28840"/>
    <path d="M282.824,29.223 C282.824,32.575 281.23,33.137 279.263,33.137 C277.296,33.137 275.702,32.575 275.702,29.223 C275.702,25.871 279.263,20.279 279.263,20.279 C279.263,20.279 282.824,25.871 282.824,29.223" fill="#F8C992" id="path28842"/>
    <path d="M206.769,18.865 C206.769,22.217 205.175,22.779 203.208,22.779 C201.241,22.779 199.647,22.217 199.647,18.865 C199.647,15.513 203.208,9.921 203.208,9.921 C203.208,9.921 206.769,15.513 206.769,18.865" fill="#F8C992" id="path28844"/>
    <path d="M89.456,25.295 C89.456,28.647 87.862,29.209 85.895,29.209 C83.928,29.209 82.334,28.647 82.334,25.295 C82.334,21.943 85.895,16.351 85.895,16.351 C85.895,16.351 89.456,21.943 89.456,25.295" fill="#F8C992" id="path28846"/>
    <path d="M243.094,49.321 C243.094,52.673 241.5,53.235 239.533,53.235 C237.566,53.235 235.972,52.673 235.972,49.321 C235.972,45.969 239.533,40.377 239.533,40.377 C239.533,40.377 243.094,45.969 243.094,49.321" fill="#F8C992" id="path28848"/>
    <path d="M23.134,52.75 C14.151,68.232 8.974,86.163 8.974,105.256 L8.974,105.256 C8.974,114.196 16.22,121.442 25.16,121.442 L318.556,121.442 C325.337,121.442 331.135,117.269 333.544,111.354 C162.456,110.673 71.489,82.659 23.134,52.75" fill="#ED9136" id="path28850"/>
  </g>
</svg>
